<?xml version="1.0" encoding="utf-8"?>
<!-- Generator: Adobe Illustrator 24.1.2, SVG Export Plug-In . SVG Version: 6.00 Build 0)  -->
<svg version="1.1" id="레이어_1" xmlns="http://www.w3.org/2000/svg" xmlns:xlink="http://www.w3.org/1999/xlink" x="0px"
	 y="0px" viewBox="0 0 100 100" style="enable-background:new 0 0 100 100;" xml:space="preserve">
<style type="text/css">
	.st0{fill:none;}
</style>
<g id="그룹_4958" transform="translate(-753 -1049)">
	<rect id="사각형_1844" x="773" y="1056.3" class="st0" width="60" height="60"/>
	<g id="그룹_4951" transform="translate(226.133 1569.801)">
		<path id="패스_717" d="M551.5-456.6h9v-18h-9V-456.6z M553.3-472.8h5.4v14.4h-5.4V-472.8z"/>
		<path id="패스_718" d="M579.4-456.6h9v-54h-9V-456.6z M581.2-508.7h5.4v50.4h-5.4V-508.7z"/>
		<path id="패스_719" d="M593.3-495.2v38.7h9v-38.7H593.3z M600.5-458.3h-5.4v-35.1h5.4V-458.3z"/>
		<path id="패스_720" d="M565.5-456.6h9v-30.6h-9V-456.6z M567.3-485.4h5.4v27h-5.4V-485.4z"/>
		<path id="패스_721" d="M568.2-502.5v1.8h3.7l-21,21l1.3,1.3l21-21v3.7h1.8v-6.7H568.2z"/>
	</g>
</g>
<g>
	<path d="M49.8,80.9v1.8h-14v-1.8h9.8c0.3-1.5,0.4-2.7,0.4-3.8h-8.5v-1.8h10.7v1.2c0,1.2,0,2.6-0.4,4.3H49.8z M37.4,84.3h10.7v5.7
		H37.4V84.3z M39.6,88.2h6.3V86h-6.3V88.2z"/>
	<path d="M62.1,83.3v1.9c0.9,0.5,1.4,1.2,1.4,2.1c0,1.8-2,2.8-5.4,2.8c-3.3,0-5.4-1-5.4-2.8c0-0.9,0.5-1.7,1.5-2.1v-1.9h-3.1v-1.8
		h14v1.8H62.1z M52.6,77.9c0-1.9,2.2-3,5.6-3c3.4,0,5.6,1.1,5.6,3c0,1.9-2.2,3-5.6,3C54.8,80.8,52.6,79.7,52.6,77.9z M54.9,77.9
		c0,0.9,1.2,1.3,3.3,1.3c2.1,0,3.3-0.4,3.3-1.3c0-0.9-1.2-1.3-3.3-1.3C56.1,76.6,54.9,77,54.9,77.9z M61.3,87.3
		c0-0.8-1.1-1.2-3.1-1.2s-3.1,0.4-3.1,1.2s1.1,1.1,3.1,1.1S61.3,88.1,61.3,87.3z M59.9,83.3h-3.4v1.2c0.5-0.1,1.1-0.1,1.6-0.1
		c0.6,0,1.2,0,1.7,0.1V83.3z"/>
</g>
</svg>
