<?xml version="1.0" encoding="utf-8"?>
<!-- Generator: Adobe Illustrator 24.1.2, SVG Export Plug-In . SVG Version: 6.00 Build 0)  -->
<svg version="1.1" id="레이어_1" xmlns="http://www.w3.org/2000/svg" xmlns:xlink="http://www.w3.org/1999/xlink" x="0px"
	 y="0px" viewBox="0 0 100 100" style="enable-background:new 0 0 100 100;" xml:space="preserve">
<style type="text/css">
	.st0{fill:none;}
</style>
<g id="그룹_4957" transform="translate(-635 -1049)">
	<rect id="사각형_1845" x="655" y="1057" class="st0" width="60" height="60"/>
	<g id="그룹_4950" transform="translate(260.764 1567.979)">
		<path id="패스_714" d="M448-505.6h-46.8c-2.1,0-3.8,1.7-3.8,3.8v30.1c0,2.1,1.7,3.8,3.8,3.8H419l-1,9.3h-3.4c-0.5,0-1,0.4-1,1
			s0.4,1,1,1h20.1c0.5,0,1-0.4,1-1s-0.4-1-1-1h-3.4l-1-9.3H448c2.1,0,3.8-1.7,3.8-3.8v-30.1C451.8-503.9,450.1-505.6,448-505.6z
			 M429.3-458.7h-9.4l1-9.3h7.3L429.3-458.7z M449.9-471.7c0,1-0.8,1.8-1.8,1.8h-46.8c-1,0-1.8-0.8-1.8-1.8v-30.1
			c0-1,0.8-1.8,1.8-1.8H448c1,0,1.8,0.8,1.8,1.8L449.9-471.7z"/>
		<path id="패스_715" d="M418.1-490.6c0-0.1,0-0.1-0.1-0.2c0,0,0,0,0,0l-3.4-6.7c-0.2-0.3-0.5-0.5-0.9-0.5c-0.4,0-0.7,0.2-0.9,0.5
			l-3.4,6.7c0,0,0,0,0,0c0,0.1-0.1,0.1-0.1,0.2v0c0,0.1,0,0.1,0,0.2v13.8c0,0.5,0.4,1,1,1h6.7c0.5,0,1-0.4,1-1v-13.8
			C418.1-490.4,418.1-490.5,418.1-490.6L418.1-490.6z M413.8-494.9l1.8,3.6H412L413.8-494.9z M416.2-477.5h-4.8v-11.9h4.8V-477.5z"
			/>
		<path id="패스_716" d="M440.9-498.6h-19.8c-0.5,0-1,0.4-1,1c0,0,0,0,0,0v9c0,0.5,0.4,1,1,1h19.8c0.5,0,1-0.4,1-1v-9
			C441.8-498.2,441.4-498.6,440.9-498.6z M439.9-489.6H422v-7h1.1v4.3h1.9v-4.3h1.4v2.4h1.9v-2.4h1.8v4.3h1.9v-4.3h1.4v2.4h1.9v-2.4
			h1.4v4.3h1.9v-4.3h1.1L439.9-489.6z"/>
	</g>
</g>
<g>
	<path d="M40,78.9c0,2.6,0.8,5.3,3,6.6l-1.3,1.6c-1.4-0.8-2.3-2.2-2.8-3.8c-0.5,1.8-1.5,3.3-2.9,4.2l-1.3-1.6
		c2.3-1.4,3.1-4.3,3.1-6.9v-0.8h-2.5v-1.8h7v1.8H40V78.9z M43.1,75h2.1v14.7h-2.1v-7.8h-2v-1.8h2V75z M48.4,74.8v15.7h-2.1V74.8
		H48.4z"/>
	<path d="M64.8,86.8v1.8H50.6v-1.8h6v-3.5h2.2v3.5H64.8z M51.2,82.3c3.3-0.5,5.1-2.5,5.3-4.5h-4.7V76h11.8v1.8h-4.7
		c0.2,2,2,3.9,5.4,4.4L63.5,84c-2.8-0.5-4.7-1.8-5.7-3.6c-1,1.9-2.9,3.2-5.7,3.7L51.2,82.3z"/>
</g>
</svg>
