<?xml version="1.0" encoding="utf-8"?>
<!-- Generator: Adobe Illustrator 24.1.2, SVG Export Plug-In . SVG Version: 6.00 Build 0)  -->
<svg version="1.1" id="레이어_1" xmlns="http://www.w3.org/2000/svg" xmlns:xlink="http://www.w3.org/1999/xlink" x="0px"
	 y="0px" viewBox="0 0 100 100" style="enable-background:new 0 0 100 100;" xml:space="preserve">
<style type="text/css">
	.st0{fill:none;}
</style>
<g id="그룹_4962" transform="translate(-1225 -1049)">
	<rect id="사각형_1847" x="1245" y="1057" class="st0" width="60" height="60"/>
	<g id="그룹_4954" transform="translate(-70.341 1570.356)">
		<path id="패스_732" d="M1370.3-503.8c-2.9-2.9-6.8-4.5-10.8-4.5c-4.1,0-8,1.6-10.8,4.5l-3.1,3l-3.1-3c-2.9-2.9-6.8-4.5-10.8-4.5
			c-4.1,0-8,1.6-10.8,4.5c-3.3,3.3-4.9,8-4.4,12.7c0.1,0.5,0.5,0.9,1,0.8c0,0,0,0,0,0c0.5-0.1,0.9-0.5,0.8-1c0,0,0,0,0,0
			c-0.5-4.1,1-8.3,3.9-11.2c2.5-2.6,6-4,9.6-4c3.6,0,7,1.4,9.6,4l3.7,3.6c0.3,0.3,0.9,0.3,1.3,0l3.8-3.7c2.5-2.6,6-4,9.6-4
			c3.6,0,7,1.4,9.6,4c5.3,5.4,5.3,14,0,19.4l-23.5,23.8l-19.7-20c-0.3-0.4-0.9-0.4-1.3,0c0,0,0,0,0,0c-0.4,0.3-0.4,0.9,0,1.3
			l20.4,20.6c0.2,0.2,0.4,0.3,0.6,0.3c0.2,0,0.5-0.1,0.6-0.3l24.1-24.4C1376.3-488,1376.3-497.7,1370.3-503.8z"/>
		<path id="패스_733" d="M1331-485.5l1.8-2.1l4.8,10.4c0.1,0.3,0.5,0.5,0.9,0.5c0.4,0,0.7-0.2,0.8-0.6l4.9-13.7l5.5,17.3
			c0.1,0.3,0.4,0.6,0.7,0.6c0,0,0.1,0,0.1,0c0.3,0,0.6-0.2,0.8-0.4l6.7-10.3c0.3-0.4,0.2-1-0.3-1.2c-0.4-0.3-1-0.2-1.2,0.3l-5.7,8.8
			l-5.7-18c-0.1-0.4-0.5-0.6-0.8-0.6c-0.4,0-0.7,0.2-0.9,0.6l-5.1,14.1l-4.5-9.7c-0.1-0.3-0.4-0.5-0.7-0.5c-0.3,0-0.6,0.1-0.8,0.3
			l-2.4,2.8h-9c-0.5,0-0.9,0.4-0.9,0.9c0,0,0,0,0,0c0,0.5,0.4,0.9,0.9,0.9l0,0h9.4C1330.6-485.1,1330.8-485.3,1331-485.5z"/>
	</g>
</g>
<g>
	<path d="M35.7,85.7c2.7,0,6.5,0,9.8-0.5l0.1,1.6c-3.3,0.7-7,0.7-9.6,0.7L35.7,85.7z M44.9,79.9c0,2.2-1.9,3.8-4.3,3.8
		c-2.4,0-4.3-1.6-4.3-3.8c0-2.2,1.8-3.8,4.3-3.8C43,76.1,44.9,77.7,44.9,79.9z M38.5,79.9c0,1.2,0.9,1.9,2.1,1.9s2.1-0.7,2.1-1.9
		S41.8,78,40.6,78S38.5,78.7,38.5,79.9z M48.6,75.1v15.6h-2.2V75.1H48.6z"/>
	<path d="M65.2,87.1v1.8H51.1v-1.8h3.6v-2.4h-1.9v-5.2h8.7v-1.6h-8.7v-1.8h10.9v5.2h-8.6v1.7h9v1.8h-2.2v2.4H65.2z M56.9,87.1h2.7
		v-2.4h-2.7V87.1z"/>
</g>
</svg>
