<?xml version="1.0" encoding="utf-8"?>
<!-- Generator: Adobe Illustrator 24.1.2, SVG Export Plug-In . SVG Version: 6.00 Build 0)  -->
<svg version="1.1" id="레이어_1" xmlns="http://www.w3.org/2000/svg" xmlns:xlink="http://www.w3.org/1999/xlink" x="0px"
	 y="0px" viewBox="0 0 100 100" style="enable-background:new 0 0 100 100;" xml:space="preserve">
<style type="text/css">
	.st0{fill:none;}
</style>
<g id="그룹_4960" transform="translate(-989 -1049)">
	<rect id="사각형_1842" x="1009" y="1057" class="st0" width="60" height="60"/>
	<path id="패스_741" d="M1064.8,1064.7h-32.5v-4.7h-13.3v4.7h-5.1v9.9h5.1v30.1h-5.1v9h29.2v-9h-10.9v-30.1h12.2v5.4h6.3v4.6
		c-1.5,0.4-2.6,1.9-2.6,3.5c0,0.8,0.3,1.7,0.8,2.3c-2.5,1.1-4.2,3.5-4.2,6.3c0,3.8,3,6.8,6.8,6.8c3.8,0,6.8-3.1,6.8-6.8v-0.9h-1.8
		v0.9c0,2.8-2.2,5-5,5c-2.8,0-5-2.2-5-5c0-2.8,2.2-5,5-5h0.9v-0.1c1.7-0.3,2.9-1.8,2.9-3.5c0-1.7-1.2-3.1-2.8-3.5v-4.6h6.7v-5.4h5.4
		L1064.8,1064.7z M1053.7,1088.1c0,1-0.8,1.8-1.8,1.8s-1.8-0.8-1.8-1.8c0-1,0.8-1.8,1.8-1.8l0,0
		C1052.9,1086.3,1053.7,1087.1,1053.7,1088.1L1053.7,1088.1z M1030,1072.6l-9.1,9.1v-18.2L1030,1072.6z M1020.9,1085.1l9.1,9.1
		l-9.1,9.1V1085.1z M1021.7,1083.4l8.8-8.9v17.7L1021.7,1083.4z M1030.6,1070.7l-8.8-8.9h8.8V1070.7z M1015.8,1072.8v-6.3h3.3v6.3
		H1015.8z M1041.4,1106.6v5.4h-25.6v-5.4H1041.4L1041.4,1106.6z M1022,1104.8l8.6-8.6v8.6H1022z M1057.6,1078.2h-11.2v-3.6h11.2
		V1078.2z M1063,1072.8h-30.7v-6.3h30.7L1063,1072.8z"/>
</g>
<g>
	<path d="M43.9,76.4c0,4.2-2.6,7.3-7.1,8.7l-0.9-1.8c3.2-1,5.3-2.9,5.6-5.1h-4.8v-1.8H43.9z M49,88.7v1.8H38.5v-5h2.2v3.2H49z
		 M46.4,79.7v-4.5h2.2v11.3h-2.2v-5h-2.7v-1.8H46.4z"/>
	<path d="M59.3,82.9c-1.6-0.5-2.8-1.5-3.4-2.8c-0.7,1.4-1.9,2.6-3.7,3.1l-1.1-1.7c2.6-0.8,3.7-2.7,3.7-4.6v-1.1H57v1.1
		c0,1.8,1.1,3.6,3.5,4.4L59.3,82.9z M64.6,88.8v1.7H53.9v-4.2h8v-0.9h-8v-1.7h10.2v4.2h-8v0.9H64.6z M61.9,79.3h-2.8v-1.8h2.8v-2.3
		h2.2v7.9h-2.2V79.3z"/>
</g>
</svg>
