<?xml version="1.0" encoding="utf-8"?>
<!-- Generator: Adobe Illustrator 24.1.2, SVG Export Plug-In . SVG Version: 6.00 Build 0)  -->
<svg version="1.1" id="레이어_1" xmlns="http://www.w3.org/2000/svg" xmlns:xlink="http://www.w3.org/1999/xlink" x="0px"
	 y="0px" viewBox="0 0 100 100" style="enable-background:new 0 0 100 100;" xml:space="preserve">
<style type="text/css">
	.st0{fill:none;}
	.st1{fill:none;stroke:#000000;stroke-width:2;stroke-linecap:round;stroke-linejoin:round;}
</style>
<g id="Group_5399" transform="translate(-871 -1049)">
	<g id="Rectangle_1843">
		<rect x="891.5" y="1058.1" class="st0" width="60" height="60"/>
	</g>
	<g id="Group_5402" transform="translate(558.47 59.5)">
		<g id="Group_5401" transform="translate(318 992.5)">
			<g id="Rectangle_2474">
				<path d="M69.6,44.9H20.5c-0.6,0-1-0.4-1-1V9.6c0-0.6,0.4-1,1-1h49.1c0.6,0,1,0.4,1,1v34.3C70.6,44.5,70.1,44.9,69.6,44.9z
					 M21.5,42.9h47.1V10.6H21.5V42.9z"/>
			</g>
			<g id="Rectangle_2475">
				<path d="M64.6,39.9H25.5c-0.6,0-1-0.4-1-1V14.6c0-0.6,0.4-1,1-1h39.1c0.6,0,1,0.4,1,1v24.3C65.6,39.5,65.1,39.9,64.6,39.9z
					 M26.5,37.9h37.1V15.6H26.5V37.9z"/>
			</g>
			<g id="Group_5400" transform="translate(6.863)">
				<g id="Path_2467">
					<path class="st1" d="M20.5,9.1"/>
				</g>
				<g id="Path_2468">
					<path class="st1" d="M55.8,9.1"/>
				</g>
			</g>
			<g id="Rectangle_2476">
				<path d="M43,39.9H33c-2.8,0-5-2.2-5-5v-4c0-2.8,2.2-5,5-5h10c2.8,0,5,2.2,5,5v4C48,37.7,45.8,39.9,43,39.9z M33,27.9
					c-1.7,0-3,1.3-3,3v4c0,1.7,1.3,3,3,3h10c1.7,0,3-1.3,3-3v-4c0-1.7-1.3-3-3-3H33z"/>
			</g>
			<g id="Line_467">
				<path d="M34.9,39.9c-0.6,0-1-0.4-1-1v-12c0-0.6,0.4-1,1-1s1,0.4,1,1v12C35.9,39.5,35.4,39.9,34.9,39.9z"/>
			</g>
			<g id="Line_468">
				<path d="M40,39.9c-0.6,0-1-0.4-1-1v-12c0-0.6,0.4-1,1-1s1,0.4,1,1v12C41,39.5,40.5,39.9,40,39.9z"/>
			</g>
		</g>
		<g id="Line_469">
			<path d="M346.2,1055.6c-0.2,0-0.3,0-0.5-0.1c-0.5-0.3-0.6-0.9-0.4-1.4l10.4-18.1c0.3-0.5,0.9-0.6,1.4-0.4
				c0.5,0.3,0.6,0.9,0.4,1.4l-10.4,18.1C346.9,1055.4,346.5,1055.6,346.2,1055.6z"/>
		</g>
		<g id="Line_470">
			<path d="M380.1,1055.6c-0.3,0-0.7-0.2-0.9-0.5l-10.4-18.1c-0.3-0.5-0.1-1.1,0.4-1.4c0.5-0.3,1.1-0.1,1.4,0.4l10.4,18.1
				c0.3,0.5,0.1,1.1-0.4,1.4C380.4,1055.5,380.2,1055.6,380.1,1055.6z"/>
		</g>
	</g>
</g>
<g>
	<g>
		<path d="M44.9,79.3h-9.1v-1.8h3.4v-1.4h2.2v1.4h3.5V79.3z M40.3,85.5c-2.2,0-3.8-1.2-3.8-2.9c0-1.7,1.6-2.8,3.8-2.8
			c2.2,0,3.8,1.2,3.8,2.8C44.1,84.3,42.5,85.5,40.3,85.5z M37.6,86.5h10.3v5.2h-2.2v-3.4h-8.1V86.5z M40.3,83.8c1,0,1.7-0.4,1.7-1.2
			c0-0.8-0.7-1.2-1.7-1.2c-1,0-1.7,0.4-1.7,1.2C38.6,83.4,39.3,83.8,40.3,83.8z M50,82h-2.1v3.9h-2.2v-9.7h2.2v4H50V82z"/>
	</g>
	<g>
		<path d="M64.6,89.6v1.8H53.1v-4.6h2.2v-2.1c-1.4,0.1-2.7,0.1-3.8,0.1L51.2,83c2.8,0,6.6-0.1,9.9-0.5l0.2,1.6
			c-1.2,0.2-2.5,0.4-3.7,0.4v2.9h-2.1v2.1H64.6z M52.3,79.5c0-1.6,1.6-2.8,3.9-2.8c2.3,0,3.9,1.1,3.9,2.8s-1.6,2.8-3.9,2.8
			C53.9,82.2,52.3,81.1,52.3,79.5z M54.4,79.5c0,0.8,0.7,1.1,1.8,1.1c1,0,1.8-0.4,1.8-1.1c0-0.8-0.7-1.2-1.8-1.2
			C55.1,78.3,54.4,78.7,54.4,79.5z M62,85.2v-9h2.2v11.7H62v-1.2h-2.9v-1.5H62z"/>
	</g>
</g>
</svg>
