<?xml version="1.0" encoding="utf-8"?>
<!-- Generator: Adobe Illustrator 24.1.2, SVG Export Plug-In . SVG Version: 6.00 Build 0)  -->
<svg version="1.1" id="레이어_1" xmlns="http://www.w3.org/2000/svg" xmlns:xlink="http://www.w3.org/1999/xlink" x="0px"
	 y="0px" viewBox="0 0 100 100" style="enable-background:new 0 0 100 100;" xml:space="preserve">
<style type="text/css">
	.st0{fill:none;}
</style>
<g id="그룹_4959" transform="translate(-871 -1049)">
	<rect id="사각형_1843" x="891" y="1057" class="st0" width="60" height="60"/>
	<g id="그룹_4952" transform="translate(191.02 1569.299)">
		<path id="패스_722" d="M754-496.6v37.2c0,1.3-1,2.3-2.3,2.3h-42.6c-1.3,0-2.3-1-2.3-2.3v-37.2H705v37.2c0,2.3,1.9,4.1,4.1,4.1
			h42.6c2.3,0,4.1-1.9,4.1-4.1v-37.2H754z"/>
		<path id="패스_723" d="M709.9-462c0.2,0.1,0.3,0.2,0.5,0.2c0.1,0,0.2,0,0.3-0.1c0.1,0,8.2-2.8,19.5,0c0,0,0,0,0,0s0.1,0,0.1,0
			c0,0,0.1,0,0.1,0c0,0,0.1,0,0.1,0c0,0,0.1,0,0.1,0c0,0,0,0,0.1,0c0.1,0,8.3-2.8,19.5,0c0.1,0,0.1,0,0.2,0c0.2,0,0.4-0.1,0.6-0.2
			c0.2-0.2,0.3-0.4,0.3-0.7V-500c0-0.4-0.2-0.7-0.6-0.8c-1.1-0.5-2.3-0.9-3.5-1.2v-7.4c0-0.3-0.2-0.6-0.5-0.8
			c-0.3-0.2-0.6-0.2-0.9,0l-15.7,9.1c-11.3-4.4-19.9,0-20.3,0.2c-0.3,0.2-0.5,0.5-0.5,0.8v37.3C709.5-462.5,709.6-462.2,709.9-462z
			 M746.9-473.6c0.2-0.2,0.4-0.4,0.4-0.7v-25.8c0.8,0.2,1.5,0.5,2.2,0.7v35.5c-5.1-1.2-10.4-1.4-15.6-0.6L746.9-473.6z M731.5-499.7
			l13.9-8.1v33.1l-13.9,9.7V-499.7z M711.3-499.4c5.9-2.3,12.4-2.3,18.2,0v35.5c-3.1-0.7-6.3-1.1-9.5-1.1c-2.9,0-5.9,0.3-8.7,1
			V-499.4z"/>
	</g>
</g>
<g>
	<path d="M44.8,78.6h-9.2v-1.8h3.5v-1.5h2.3v1.5h3.5V78.6z M40.2,84.8c-2.2,0-3.8-1.2-3.8-2.9c0-1.7,1.6-2.9,3.8-2.9
		c2.3,0,3.8,1.2,3.8,2.9C44,83.7,42.5,84.8,40.2,84.8z M37.5,85.9h10.4v5.2h-2.2v-3.4h-8.2V85.9z M40.2,83.1c1,0,1.7-0.4,1.7-1.2
		c0-0.8-0.7-1.2-1.7-1.2c-1,0-1.7,0.4-1.7,1.2C38.5,82.8,39.2,83.1,40.2,83.1z M50,81.3h-2.1v3.9h-2.2v-9.8h2.2v4H50V81.3z"/>
	<path d="M65.4,87.4v1.8H51.2v-1.8h3v-4.9h2.2v4.9h1.7v-4.9h2.2v4.9H65.4z M61.3,85.3c0.5-2.8,0.5-4.9,0.5-6.7h-9.3v-1.8h11.5v1.5
		c0,1.9,0,4.1-0.5,7.2L61.3,85.3z"/>
</g>
</svg>
